<svg width="32" height="39" viewBox="0 0 32 39" fill="none" xmlns="http://www.w3.org/2000/svg">
<path d="M26.526 20.6746C26.5449 19.2079 26.9345 17.7698 27.6585 16.4942C28.3826 15.2185 29.4176 14.1468 30.6672 13.3786C29.8731 12.2451 28.8258 11.3121 27.6083 10.6539C26.3908 9.99568 25.0366 9.63026 23.6532 9.58665C20.7024 9.27585 17.8404 11.3518 16.3332 11.3518C14.7996 11.3518 12.486 9.61665 9.99124 9.67185C8.37858 9.72381 6.8069 10.1927 5.4294 11.0329C4.0519 11.8731 2.91559 13.0558 2.13124 14.4658C-1.26836 20.3458 1.26724 28.9978 4.52404 33.7546C6.15244 36.0838 8.05684 38.6854 10.548 38.593C12.9852 38.4922 13.896 37.039 16.8372 37.039C19.752 37.039 20.6064 38.593 23.148 38.5342C25.764 38.4922 27.4104 36.1942 28.9824 33.8434C30.1532 32.184 31.0539 30.3497 31.6512 28.4086C30.1318 27.7654 28.8354 26.6889 27.924 25.3135C27.0125 23.938 26.5263 22.3247 26.526 20.6746Z" fill="white"/>
<path d="M21.7262 6.4584C23.1524 4.74683 23.8549 2.54657 23.6846 0.325195C21.5049 0.553713 19.4912 1.59482 18.0446 3.2412C17.3378 4.04528 16.7965 4.98082 16.4516 5.99429C16.1067 7.00777 15.965 8.0793 16.0346 9.1476C17.125 9.15962 18.2039 8.92381 19.1898 8.45796C20.1758 7.99211 21.043 7.30839 21.7262 6.4584Z" fill="white"/>
</svg>
